<?xml version="1.0" standalone="no"?>
<!DOCTYPE svg PUBLIC "-//W3C//DTD SVG 20010904//EN"
 "http://www.w3.org/TR/2001/REC-SVG-20010904/DTD/svg10.dtd">
<svg version="1.0" xmlns="http://www.w3.org/2000/svg"
 width="700.000000pt" height="700.000000pt" viewBox="0 0 700.000000 700.000000"
 preserveAspectRatio="xMidYMid meet">
<metadata>
Created by potrace 1.14, written by Peter Selinger 2001-2017
</metadata>
<g transform="translate(0.000000,700.000000) scale(0.100000,-0.100000)"
fill="#000000" stroke="none">
<path d="M0 5123 l0 -1878 1875 1875 c1031 1031 1875 1876 1875 1877 0 2 -844
3 -1875 3 l-1875 0 0 -1877z"/>
<path d="M6599 6417 c-1568 -1111 -2989 -2208 -3664 -2826 -38 -35 -171 -150
-295 -254 -295 -249 -466 -421 -510 -510 -48 -98 -41 -124 52 -207 252 -225
319 -309 452 -562 37 -71 77 -135 89 -143 98 -69 306 72 692 466 216 221 248
257 771 889 468 565 1033 1246 2013 2429 376 454 686 833 689 843 5 20 -14 48
-33 48 -7 0 -122 -78 -256 -173z"/>
<path d="M1563 2351 c-242 -61 -356 -189 -483 -541 -63 -173 -92 -234 -156
-320 -127 -173 -437 -419 -722 -572 -111 -60 -113 -54 42 -121 359 -157 764
-236 1061 -207 445 44 800 260 960 585 145 295 137 600 -22 868 -84 141 -208
248 -349 299 -82 30 -233 34 -331 9z"/>
</g>
</svg>
