<svg xmlns="http://www.w3.org/2000/svg" width="100" height="100">
  <g fill="none" stroke="#000" stroke-width="6">
    <path d="M43.8 16.2c.3.4-26.9 27.1-36.6 36.8-8.3 8.4-4.7 13.5 9.6 28C32.5 97 37.2 101.8 46 93.2 56 83.4 83 55.6 83.3 55.8z" stroke-linecap="round" stroke-linejoin="round"/>
    <path d="M28.5 22v-5c0-17 27.8-19.2 27.8 0v29.9" stroke-linejoin="round" stroke-linecap="round"/>
    <path d="M89 65.7s8.5 13 8 23.2c-.3 5.1-2.7 7.8-7.6 7.8-5.6-.1-8.5-2.9-8.4-8.6 0-9.5 8-22.4 8-22.4z"/>
  </g>
</svg>